<svg width="1109" height="290" viewBox="0 0 1109 290" fill="none" xmlns="http://www.w3.org/2000/svg">
<path d="M85.7879 242.443C73.9407 242.443 63.0454 241.173 53.1022 238.635C43.1589 236.308 34.485 232.605 27.0805 227.528C19.676 222.239 13.6465 215.786 8.99226 208.17C4.33798 200.343 1.37616 191.14 0.10681 180.562H33.7446C34.8024 188.601 37.5526 195.265 41.9954 200.554C46.4381 205.632 52.3617 209.545 59.7662 212.296C67.3823 214.834 76.2678 216.104 86.4226 216.104C94.8849 216.104 102.924 214.94 110.54 212.613C118.156 210.286 124.397 206.478 129.263 201.189C134.341 195.9 136.879 188.813 136.879 179.927C136.879 173.58 134.764 168.186 130.532 163.743C126.513 159.3 121.224 155.704 114.666 152.954C108.319 149.992 101.443 147.559 94.0387 145.655C86.8457 143.539 79.8643 141.635 73.0944 139.943C63.1512 137.616 54.0542 134.76 45.8034 131.375C37.5526 127.99 30.4654 123.97 24.5418 119.316C18.8297 114.45 14.387 108.949 11.2136 102.814C8.04025 96.6791 6.45356 89.4861 6.45356 81.2353C6.45356 70.6574 8.46336 61.5604 12.483 53.9443C16.5026 46.1166 21.8973 39.6641 28.6672 34.5867C35.6486 29.2977 43.582 25.3839 52.4675 22.8452C61.5645 20.3065 70.9788 19.0372 80.7105 19.0372C91.5 19.0372 101.337 20.0949 110.223 22.2105C119.108 24.3261 126.936 27.6053 133.706 32.048C140.687 36.4907 146.294 42.2028 150.525 49.1842C154.967 55.9541 157.824 63.9933 159.093 73.3019H127.676C125.984 63.3586 121.224 56.1656 113.396 51.7229C105.569 47.0686 94.7792 44.7415 81.0279 44.7415C73.6233 44.7415 66.6419 45.9051 60.0836 48.2322C53.5253 50.3478 48.1305 53.7327 43.8994 58.387C39.8798 62.8297 37.87 68.7534 37.87 76.1579C37.87 82.5046 39.6682 87.8994 43.2647 92.3421C47.0728 96.5733 51.9386 100.064 57.8622 102.814C63.9974 105.565 70.5557 107.892 77.5371 109.796C84.5186 111.7 91.2884 113.392 97.8467 114.873C106.944 117.2 115.723 119.845 124.186 122.807C132.648 125.768 140.158 129.576 146.717 134.231C153.487 138.673 158.776 144.385 162.584 151.367C166.392 158.137 168.296 166.705 168.296 177.071C168.296 188.707 165.969 198.756 161.314 207.218C156.872 215.469 150.736 222.239 142.909 227.528C135.081 232.605 126.196 236.308 116.252 238.635C106.521 241.173 96.3658 242.443 85.7879 242.443ZM192.024 317.334V98.3715H222.488V119.95C228.624 111.911 236.028 105.776 244.702 101.545C253.376 97.3137 263.002 95.1981 273.58 95.1981C286.908 95.1981 298.649 98.6889 308.804 105.67C319.171 112.44 327.316 121.326 333.239 132.327C339.163 143.328 342.125 155.281 342.125 168.186C342.125 180.879 339.163 192.832 333.239 204.045C327.316 215.046 319.171 224.037 308.804 231.019C298.649 237.788 286.908 241.173 273.58 241.173C266.598 241.173 259.934 240.221 253.588 238.317C247.241 236.413 241.423 233.557 236.134 229.749C231.057 225.941 226.508 221.498 222.488 216.421V317.334H192.024ZM266.598 213.565C275.061 213.565 282.571 211.449 289.129 207.218C295.688 202.987 300.871 197.487 304.679 190.717C308.487 183.735 310.391 176.225 310.391 168.186C310.391 160.147 308.487 152.742 304.679 145.972C300.871 138.991 295.688 133.384 289.129 129.153C282.571 124.922 275.061 122.807 266.598 122.807C258.136 122.807 250.52 124.922 243.75 129.153C237.192 133.384 232.009 138.991 228.201 145.972C224.392 152.742 222.488 160.147 222.488 168.186C222.488 176.225 224.392 183.735 228.201 190.717C232.009 197.487 237.192 202.987 243.75 207.218C250.52 211.449 258.136 213.565 266.598 213.565ZM432.385 240.539C418.21 240.539 405.305 237.365 393.67 231.019C382.034 224.672 372.831 216.104 366.061 205.314C359.291 194.313 355.907 181.831 355.907 167.868C355.907 153.906 359.291 141.424 366.061 130.423C373.043 119.422 382.246 110.748 393.67 104.401C405.305 98.0542 418.21 94.8808 432.385 94.8808C446.559 94.8808 459.359 98.0542 470.783 104.401C482.418 110.748 491.621 119.422 498.391 130.423C505.161 141.424 508.546 153.906 508.546 167.868C508.546 181.831 505.161 194.313 498.391 205.314C491.621 216.104 482.418 224.672 470.783 231.019C459.359 237.365 446.559 240.539 432.385 240.539ZM432.385 213.565C441.482 213.565 449.31 211.449 455.868 207.218C462.638 202.987 467.821 197.381 471.417 190.399C475.225 183.418 477.129 175.802 477.129 167.551C477.129 159.3 475.225 151.79 471.417 145.02C467.821 138.039 462.638 132.432 455.868 128.201C449.31 123.97 441.482 121.854 432.385 121.854C423.499 121.854 415.672 123.97 408.902 128.201C402.132 132.432 396.843 138.039 393.035 145.02C389.439 151.79 387.64 159.3 387.64 167.551C387.64 175.802 389.439 183.418 393.035 190.399C396.843 197.381 402.026 202.987 408.585 207.218C415.354 211.449 423.288 213.565 432.385 213.565ZM548.285 238V124.393H514.33V98.3715H548.285V44.4242H578.749V98.3715H612.387V124.393H578.749V238H548.285ZM636.306 238V-0.00309356H667.088V238H636.306ZM773.493 240.539C758.684 240.539 745.356 237.577 733.508 231.653C721.873 225.518 712.564 217.056 705.583 206.266C698.601 195.265 695.111 182.466 695.111 167.868C695.111 153.906 698.495 141.424 705.265 130.423C712.035 119.422 721.132 110.748 732.556 104.401C743.98 97.8426 756.78 94.5635 770.954 94.5635C784.494 94.5635 796.87 97.8426 808.083 104.401C819.295 110.748 828.286 119.316 835.056 130.105C842.038 140.895 845.528 153.165 845.528 166.916V175.802H718.276V152.954H814.747C813.054 143.645 808.188 135.817 800.149 129.471C792.11 122.912 782.484 119.633 771.272 119.633C762.175 119.633 754.241 121.749 747.471 125.98C740.913 129.999 735.835 135.606 732.239 142.799C728.643 149.78 726.844 157.819 726.844 166.916C726.844 176.648 728.854 185.11 732.874 192.303C737.105 199.496 742.5 205.103 749.058 209.122C755.828 212.93 763.021 214.834 770.637 214.834C777.195 214.834 783.225 214.094 788.725 212.613C794.437 210.921 799.515 208.699 803.957 205.949C808.612 203.199 812.525 199.814 815.699 195.794L836.008 212.93C831.566 218.431 825.959 223.297 819.189 227.528C812.42 231.547 805.121 234.721 797.293 237.048C789.466 239.375 781.532 240.539 773.493 240.539ZM916.972 241.808C905.336 241.808 895.075 240.116 886.19 236.731C877.304 233.346 870.111 228.163 864.611 221.181C859.322 214.2 856.043 205.314 854.773 194.525H886.19C887.248 201.083 889.363 206.16 892.537 209.757C895.921 213.142 899.835 215.469 904.278 216.738C908.721 218.008 913.375 218.642 918.241 218.642C926.915 218.642 933.579 217.056 938.233 213.882C942.887 210.497 945.215 205.632 945.215 199.285C945.215 194.842 943.311 191.14 939.503 188.178C935.906 185.005 930.617 182.466 923.636 180.562C919.616 179.293 914.856 178.129 909.355 177.071C903.855 175.802 898.354 174.427 892.854 172.946C887.565 171.253 882.805 169.349 878.574 167.234C872.862 164.06 868.207 160.147 864.611 155.492C861.226 150.626 859.533 144.809 859.533 138.039C859.533 128.519 861.861 120.585 866.515 114.238C871.381 107.892 877.939 103.132 886.19 99.9582C894.652 96.7848 904.384 95.1981 915.385 95.1981C930.194 95.1981 942.676 98.16 952.831 104.084C963.197 110.007 969.755 120.479 972.506 135.5H941.089C940.031 131.057 938.233 127.567 935.694 125.028C933.156 122.278 930.088 120.479 926.492 119.633C922.895 118.575 918.876 118.046 914.433 118.046C908.721 118.046 903.432 119.316 898.566 121.854C893.7 124.393 891.267 128.413 891.267 133.913C891.267 139.414 893.594 143.433 898.249 145.972C902.903 148.299 907.98 150.203 913.481 151.684C916.654 152.319 920.568 153.165 925.222 154.223C930.088 155.281 935.06 156.55 940.137 158.031C945.426 159.3 950.08 160.993 954.1 163.108C961.293 166.282 966.899 170.724 970.919 176.437C974.939 182.149 976.948 189.13 976.948 197.381C976.948 207.959 974.304 216.527 969.015 223.085C963.726 229.432 956.533 234.192 947.436 237.365C938.55 240.327 928.396 241.808 916.972 241.808ZM1048.84 241.808C1037.2 241.808 1026.94 240.116 1018.06 236.731C1009.17 233.346 1001.98 228.163 996.479 221.181C991.19 214.2 987.911 205.314 986.642 194.525H1018.06C1019.12 201.083 1021.23 206.16 1024.41 209.757C1027.79 213.142 1031.7 215.469 1036.15 216.738C1040.59 218.008 1045.24 218.642 1050.11 218.642C1058.78 218.642 1065.45 217.056 1070.1 213.882C1074.76 210.497 1077.08 205.632 1077.08 199.285C1077.08 194.842 1075.18 191.14 1071.37 188.178C1067.77 185.005 1062.49 182.466 1055.5 180.562C1051.48 179.293 1046.72 178.129 1041.22 177.071C1035.72 175.802 1030.22 174.427 1024.72 172.946C1019.43 171.253 1014.67 169.349 1010.44 167.234C1004.73 164.06 1000.08 160.147 996.479 155.492C993.095 150.626 991.402 144.809 991.402 138.039C991.402 128.519 993.729 120.585 998.383 114.238C1003.25 107.892 1009.81 103.132 1018.06 99.9582C1026.52 96.7848 1036.25 95.1981 1047.25 95.1981C1062.06 95.1981 1074.54 98.16 1084.7 104.084C1095.07 110.007 1101.62 120.479 1104.37 135.5H1072.96C1071.9 131.057 1070.1 127.567 1067.56 125.028C1065.02 122.278 1061.96 120.479 1058.36 119.633C1054.76 118.575 1050.74 118.046 1046.3 118.046C1040.59 118.046 1035.3 119.316 1030.43 121.854C1025.57 124.393 1023.14 128.413 1023.14 133.913C1023.14 139.414 1025.46 143.433 1030.12 145.972C1034.77 148.299 1039.85 150.203 1045.35 151.684C1048.52 152.319 1052.44 153.165 1057.09 154.223C1061.96 155.281 1066.93 156.55 1072.01 158.031C1077.29 159.3 1081.95 160.993 1085.97 163.108C1093.16 166.282 1098.77 170.724 1102.79 176.437C1106.81 182.149 1108.82 189.13 1108.82 197.381C1108.82 207.959 1106.17 216.527 1100.88 223.085C1095.59 229.432 1088.4 234.192 1079.3 237.365C1070.42 240.327 1060.26 241.808 1048.84 241.808Z" fill="white"/>
</svg>
